# xmcd CD database file
# Copyright (C) 1993-1998 Ti Kan
# 
# Track frame offsets:
#     150
#     24857
#     44692
#     61970
#     84805
#     100455
#     127510
#     147227
#     163520
# 
# Disc length: 2444 seconds
# 
# Revision: 1
# Processed by: cddbd v1.4b41PL1 Copyright (c) Steve Scherf et al.
# Submitted via: DiscPlay 4.0.4
# 
DISCID=67098a09
DTITLE=The Ward Brothers - Madness Of It All
DYEAR=1900
DGENRE=
TTITLE0=Why Do You Run
TTITLE1=Easy Prey
TTITLE2=I Trusted You
TTITLE3=Over The Border
TTITLE4=Shadows Of You
TTITLE5=Don't Talk To Strangers
TTITLE6=Limbo
TTITLE7=Cross That Bridge
TTITLE8=Madness Of It All
EXTD=
EXTT0=
EXTT1=
EXTT2=
EXTT3=
EXTT4=
EXTT5=
EXTT6=
EXTT7=
EXTT8=
PLAYORDER=
